<?xml version="1.0" encoding="iso-8859-1"?>
<!-- Uploaded to: SVG Repo, www.svgrepo.com, Generator: SVG Repo Mixer Tools -->
<svg height="800px" width="800px" version="1.1" id="Layer_1" xmlns="http://www.w3.org/2000/svg" xmlns:xlink="http://www.w3.org/1999/xlink" 
	 viewBox="0 0 501.993 501.993" xml:space="preserve">
<g>
	<g>
		<g>
			<path style="fill:#E6E6E6;" d="M408.758,324.366L173.876,89.484v330.663l56.469-23.027c17.986-7.334,38.511,1.315,45.822,19.31
				l23.063,56.763c6.267,15.425,23.852,22.848,39.276,16.581l0,0c15.425-6.267,22.848-23.852,16.581-39.276l-23.125-56.916
				c-7.298-17.963,1.332-38.443,19.286-45.764L408.758,324.366z"/>
			<path d="M327.21,501.993c-15.86,0-30.916-9.459-37.244-25.035l-23.063-56.763c-2.53-6.226-7.333-11.093-13.527-13.703
				c-6.194-2.61-13.032-2.649-19.255-0.112l-56.469,23.027c-3.083,1.258-6.59,0.897-9.354-0.96s-4.421-4.969-4.421-8.299V89.484
				c0-4.044,2.437-7.691,6.173-9.239c3.737-1.548,8.038-0.692,10.898,2.168L415.83,317.294c2.368,2.369,3.394,5.766,2.731,9.049
				c-0.662,3.283-2.925,6.017-6.026,7.282l-57.51,23.452c-12.819,5.228-19.009,19.915-13.797,32.74l23.125,56.917
				c4.036,9.935,3.962,20.846-0.208,30.726s-11.939,17.543-21.874,21.58C337.338,501.044,332.233,501.993,327.21,501.993z
				 M243.616,384.494c5.944,0,11.883,1.189,17.526,3.568c11.121,4.687,19.747,13.424,24.289,24.604l23.063,56.763
				c4.181,10.292,15.958,15.264,26.248,11.081c4.985-2.025,8.883-5.871,10.977-10.829c2.093-4.958,2.13-10.434,0.104-15.419
				l-23.125-56.917c-9.357-23.03,1.757-49.402,24.775-58.788l43.569-17.767L183.876,113.626V405.27l42.693-17.41
				C232.073,385.616,237.847,384.494,243.616,384.494z"/>
		</g>
		<g>
			<path d="M204.022,382.789c-5.523,0-10-4.477-10-10V231.735c0-5.523,4.477-10,10-10s10,4.477,10,10v141.053
				C214.022,378.312,209.545,382.789,204.022,382.789z"/>
		</g>
		<g>
			<path d="M204.022,203.111c-5.523,0-10-4.477-10-10v-20.725c0-5.523,4.477-10,10-10s10,4.477,10,10v20.725
				C214.022,198.634,209.545,203.111,204.022,203.111z"/>
		</g>
	</g>
	<g>
		<path d="M173.876,44.457c-5.523,0-10-4.477-10-10V10c0-5.523,4.477-10,10-10s10,4.477,10,10v24.457
			C183.876,39.979,179.399,44.457,173.876,44.457z"/>
	</g>
	<g>
		<path d="M100.366,28.152c-2.468,0-4.94-0.908-6.874-2.738l-4.259-4.033c-4.01-3.797-4.183-10.126-0.386-14.137
			c3.797-4.01,10.125-4.184,14.137-0.386l4.259,4.033c4.01,3.797,4.183,10.126,0.386,14.137
			C105.663,27.104,103.017,28.152,100.366,28.152z"/>
	</g>
	<g>
		<path d="M133.782,61.793c-2.559,0-5.119-0.976-7.071-2.929L113.676,45.83c-3.905-3.905-3.905-10.237,0-14.143
			c3.905-3.905,10.237-3.905,14.143,0l13.035,13.035c3.905,3.905,3.905,10.237,0,14.143
			C138.901,60.817,136.342,61.793,133.782,61.793z"/>
	</g>
	<g>
		<path d="M117.691,102.403H93.235c-5.523,0-10-4.477-10-10s4.477-10,10-10h24.457c5.523,0,10,4.477,10,10
			S123.214,102.403,117.691,102.403z"/>
	</g>
	<g>
		<path d="M117.735,159.79c-2.559,0-5.119-0.976-7.071-2.929c-3.905-3.905-3.905-10.237,0-14.143l17.293-17.293
			c3.905-3.905,10.237-3.905,14.143,0c3.905,3.905,3.905,10.237,0,14.143l-17.293,17.293
			C122.853,158.814,120.294,159.79,117.735,159.79z"/>
	</g>
	<g>
		<path d="M248.126,100.642h-16.305c-5.523,0-10-4.477-10-10s4.477-10,10-10h16.305c5.523,0,10,4.477,10,10
			S253.649,100.642,248.126,100.642z"/>
	</g>
	<g>
		<path d="M282.774,100.642h-5.095c-5.523,0-10-4.477-10-10s4.477-10,10-10h5.095c5.523,0,10,4.477,10,10
			S288.297,100.642,282.774,100.642z"/>
	</g>
	<g>
		<path d="M214.485,60.548c-2.559,0-5.119-0.976-7.071-2.929c-3.905-3.905-3.905-10.237,0-14.143l17.293-17.293
			c3.905-3.905,10.237-3.905,14.143,0c3.905,3.905,3.905,10.237,0,14.143l-17.293,17.293
			C219.604,59.572,217.044,60.548,214.485,60.548z"/>
	</g>
</g>
</svg>